PathFileType	4	(X/Y/Z)	C:/Users/beibeiliu/ov580/test_trc/User3\sequence.50_training_dense_left.trc
DataRate	CameraRate	NumFrames	NumMarkers	Units	OrigDataRate	OrigDataStartFrame	OrigNumFrames
120	120	13	19	mm	120	62	92
Frame#	Time	ThumbCMC			ThumbMCP			ThumbIP			ThumbTip			IndexMCP			IndexPIP			IndexTip			MiddleMCP			MiddlePIP			MiddleTip			RingMCP			RingPIP			RingTip			PinkyMCP			PinkyPIP			PinkyTip			BackHand1			BackHand2			BackHand3	
		X0	Y0	Z0	X1	Y1	Z1	X2	Y2	Z2	X3	Y3	Z3	X4	Y4	Z4	X5	Y5	Z5	X6	Y6	Z6	X7	Y7	Z7	X8	Y8	Z8	X9	Y9	Z9	X10	Y10	Z10	X11	Y11	Z11	X12	Y12	Z12	X13	Y13	Z13	X14	Y14	Z14	X15	Y15	Z15	X16	Y16	Z16	X17	Y17	Z17	X18	Y18	Z18	
61	0.508333	-72.1775	-11.4555	75.8812	-59.5525	-5.19229	52.9446	-45.4333	4.49057	29.5887	-34.1664	11.4117	9.64927	-106.057	-3.17069	4.95971	-105.043	2.43894	-23.6582	-101.519	5.23306	-49.9879	-121.665	-20.9248	-6.177	-116.975	-36.9648	-32.6021	-101.095	-64.0195	-49.4886	-131.007	-48.6852	9.21758	-115.012	-71.5624	-5.22784	-96.1896	-95.813	5.77424	-137.409	-64.2536	22.3321	-117.383	-83.0058	19.3105	-97.2553	-91.0336	34.5887	-139.493	-22.4194	56.7012	-134.036	-22.5773	88.3742	-106.336	-2.33575	70.9254	
62	0.516667	-73.7482	-11.9205	78.2545	-62.3109	-3.90362	51.1457	-50.1962	3.75927	31.1208	-40.6617	10.497	7.19429	-106.085	-4.95882	2.66452	-105.556	-0.573107	-21.7989	-106.571	-2.24137	-51.4523	-119.091	-27.4952	-3.77248	-107.17	-46.9697	-30.1044	-91.4769	-78.091	-33.9355	-125.12	-55.2138	9.48198	-107.448	-75.9307	-0.282272	-86.0202	-96.8194	18.1492	-132.699	-67.4807	25.0629	-111.787	-86.6435	24.6096	-90.5268	-93.1957	44.4066	-137.601	-23.3089	61.4485	-132.479	-24.0152	89.5448	-108.752	-6.21675	70.26	
63	0.525	-77.5702	-9.79329	78.8694	-65.9566	0.461056	54.2475	-56.6573	7.71622	29.2017	-51.3886	6.44164	3.31023	-107.208	-6.7465	4.47481	-107.739	-4.61016	-25.4475	-103.827	-9.83284	-52.6791	-117.716	-33.0035	-4.4382	-101.886	-51.7301	-23.9185	-76.0065	-79.0454	-11.3111	-122.8	-54.1288	11.8686	-100.668	-77.5134	2.91607	-81.8739	-91.515	24.8244	-129.682	-66.4975	25.9874	-107.909	-87.4004	25.0035	-85.5642	-85.9056	45.7897	-136.807	-26.4145	59.9652	-138.777	-28.1285	92.3109	-111.893	-4.92383	68.7622	
64	0.533333	-83.4213	-5.8301	78.72	-69.5226	8.23065	56.5896	-64.797	12.2345	21.8649	-65.9525	-3.55419	3.0399	-112.149	-4.42705	3.6463	-109.813	-4.35671	-27.8986	-97.4786	-14.2522	-48.822	-117.089	-28.5296	-4.29502	-97.6129	-51.7961	-21.9047	-73.8681	-70.9686	2.11844	-122.244	-54.8899	7.98507	-98.9502	-73.9664	1.10789	-77.4879	-79.4282	27.3357	-124.289	-66.2471	23.9651	-100.993	-83.6383	22.3363	-84.7824	-84.95	47.0245	-139.151	-29.5676	59.9357	-136.516	-30.3824	90.6154	-113.358	-6.15209	70.151	
65	0.541667	-86.1124	-1.41438	77.7414	-77.8233	13.3741	49.2704	-71.4517	10.9641	23.8412	-75.4029	-9.95997	4.16629	-115.692	-2.5749	7.76227	-113.184	-7.04433	-27.7312	-90.4037	-23.9329	-43.9191	-121.707	-25.7071	-5.00345	-102.443	-46.7946	-23.4332	-78.7861	-60.8865	0.485332	-119.189	-49.2744	5.27537	-94.9834	-68.1075	-1.25488	-78.3554	-70.9239	26.5611	-119.562	-66.7878	19.7485	-97.1185	-82.0534	20.6351	-79.5604	-73.661	43.8378	-138.356	-33.0443	61.3689	-139.883	-34.3189	87.8694	-120.213	-7.31922	71.1475	
66	0.55	-87.7791	2.79792	75.6192	-77.8615	17.7937	49.1661	-74.2047	11.0131	18.2221	-76.614	-14.404	2.45742	-119.998	-1.5639	6.43462	-114.516	-6.77548	-28.1045	-84.9656	-22.6858	-32.504	-129.033	-25.3651	-5.61951	-109.357	-35.3488	-28.4824	-80.8718	-49.8787	0.00307422	-121.941	-48.6637	3.1083	-97.4428	-65.3815	-5.73115	-79.0201	-62.4499	20.3556	-121.517	-66.5223	19.8206	-94.0072	-74.5834	16.1425	-81.9591	-72.3993	44.063	-139.473	-34.1123	60.4506	-136.858	-38.1507	86.8717	-123.043	-6.78638	71.0337	
67	0.558333	-87.9853	4.68958	73.6111	-73.4353	14.4162	47.2288	-67.0965	9.40002	14.7623	-73.9036	-19.2503	4.06363	-124.312	-3.21851	5.19951	-114.299	-5.9813	-26.6353	-83.3206	-18.5284	-23.4421	-132.83	-23.4579	-3.26451	-113.263	-33.7388	-28.0356	-86.1341	-44.49	-3.76182	-124.425	-45.9503	2.46966	-96.3487	-58.7081	-5.94499	-82.5652	-54.0025	22.2009	-117.115	-66.1193	14.7167	-89.9757	-71.5593	17.3154	-84.6462	-61.8466	45.9158	-141.543	-36.1385	59.4509	-135.327	-39.0268	85.4022	-124.316	-7.71477	70.4303	
68	0.566667	-85.3049	2.04281	73.0652	-66.7685	8.45221	45.2194	-60.362	2.62341	17.9572	-63.5079	-20.8503	-1.94644	-124.821	0.0856406	1.91612	-107.717	-7.23082	-26.7837	-83.2625	-20.4822	-13.21	-135.781	-20.7619	-3.42298	-116.923	-30.7247	-27.0619	-87.5754	-38.116	-1.91226	-125.578	-42.2601	3.54153	-98.0694	-55.3933	-6.13132	-85.5295	-54.709	23.6717	-119.356	-66.3764	14.7037	-90.4633	-66.9027	16.4779	-85.9556	-57.1598	43.5637	-141.737	-35.8124	56.0642	-138.359	-41.8072	87.0251	-125.109	-9.90045	69.9516	
69	0.575	-86.4977	-3.31282	73.2328	-67.6196	2.32005	42.6658	-56.9581	0.580876	15.1145	-57.1842	-18.6445	-5.35939	-121.741	2.87472	1.03744	-101.315	-8.75113	-22.1744	-80.7137	-20.5698	-2.44608	-132.441	-21.7301	-6.53578	-110.708	-31.9838	-24.2178	-87.2716	-38.0243	9.60566	-124.676	-46.1223	3.56191	-98.067	-57.0052	-3.75049	-85.7672	-50.2343	27.4038	-119.448	-65.1766	13.772	-91.3792	-64.9347	16.9982	-87.0927	-59.0581	44.875	-143.525	-38.0055	60.8011	-136.398	-44.2939	91.1651	-125.387	-10.3892	72.4841	
70	0.583333	-84.6887	-1.00398	73.4853	-69.9266	0.392985	45.7134	-56.9045	2.07621	16.5858	-57.0536	-12.5128	-6.92626	-115.744	0.855182	0.0157068	-92.28	-8.8115	-18.4749	-76.0573	-24.4637	11.8461	-124.474	-19.7659	-3.77144	-99.9653	-34.5859	-17.4139	-84.0348	-35.6569	18.9473	-124.147	-45.4893	4.63668	-92.3181	-54.3865	2.62485	-88.3765	-48.4483	36.385	-120.246	-64.7691	13.1809	-94.2142	-69.5044	17.733	-91.6734	-54.9451	47.1506	-144.787	-37.4468	58.0095	-134.803	-39.0869	89.7299	-124.696	-9.38222	73.5528	
71	0.591667	-85.1146	0.272816	71.4217	-66.678	5.80746	49.819	-59.2441	5.85725	19.3949	-55.5726	-4.87025	-6.00778	-107.981	-6.41847	0.308793	-79.4823	-19.7641	-7.75192	-73.1851	-28.0294	24.4323	-118.147	-21.4864	-3.6118	-88.5982	-35.397	-9.93087	-83.8891	-37.5751	31.83	-118.069	-42.5702	3.07675	-93.4294	-55.5862	2.89746	-89.1034	-49.3792	40.3027	-124.692	-61.3662	16.1651	-95.531	-66.2291	17.686	-92.29	-56.0684	48.0736	-144.171	-33.3208	55.2597	-138.033	-37.6269	87.3525	-122.56	-4.22757	71.118	
72	0.6	-81.5162	0.617317	76.5764	-66.0889	8.85961	50.304	-56.0569	12.3813	20.3642	-58.5315	-2.02525	-3.43946	-99.311	-7.63108	0.372679	-72.7328	-25.6379	-2.25039	-68.4941	-28.9971	30.5606	-109.381	-25.9421	-4.64568	-82.158	-43.1336	-0.693553	-83.3298	-40.7365	36.7034	-114.753	-43.4506	3.86366	-86.9752	-56.5874	9.42979	-87.2971	-47.4782	43.4227	-121.492	-55.7341	14.7172	-95.1844	-67.3627	17.9295	-93.6378	-61.4548	50.0517	-143.889	-30.9141	56.2771	-136.64	-33.7608	88.8178	-120.822	-5.319	71.606	
73	0.608333	-80.8246	0.557761	76.443	-66.6697	8.48944	47.47	-56.1429	7.49304	16.387	-53.6165	-6.37754	-3.19397	-92.1416	-7.27617	2.50482	-63.2353	-25.6732	4.42604	-70.1192	-29.2218	38.6571	-100.999	-24.9888	-1.33203	-75.6344	-43.4241	2.81682	-82.9631	-39.0355	44.5004	-108.761	-41.9726	6.29054	-80.9428	-56.2214	17.2356	-87.9803	-46.902	49.1463	-112.705	-58.0544	13.4126	-90.0953	-69.3824	25.1326	-94.2251	-55.4912	53.3414	-138.132	-26.6471	51.5998	-137.424	-35.0463	82.245	-118.556	-4.04869	67.6537	
